<?xml version="1.0" encoding="UTF-8" standalone="no"?>
<!DOCTYPE svg PUBLIC "-//W3C//DTD SVG 1.1//EN" "http://www.w3.org/Graphics/SVG/1.1/DTD/svg11.dtd">
<svg width="100%" height="100%" viewBox="0 0 193 180" version="1.1" xmlns="http://www.w3.org/2000/svg" xmlns:xlink="http://www.w3.org/1999/xlink" xml:space="preserve" xmlns:serif="http://www.serif.com/" style="fill-rule:evenodd;clip-rule:evenodd;stroke-linecap:round;stroke-linejoin:round;stroke-miterlimit:1.5;">
    <g transform="matrix(1,0,0,1,-113,-223)">
        <g transform="matrix(1,0,0,1,-39.6601,-122.19)">
            <g id="bicchiere" transform="matrix(0.491803,0,0,0.637367,-73.0717,128.39)">
                <path d="M478.917,354.747L469,354.747C464.323,354.747 460.527,351.818 460.527,348.209C460.527,344.601 464.323,341.672 469,341.672L841.828,341.672C846.504,341.672 850.3,344.601 850.3,348.209C850.3,351.818 846.504,354.747 841.828,354.747L831.91,354.747L831.91,597.993C831.91,611.095 818.145,621.716 801.165,621.716L509.662,621.716C492.682,621.716 478.917,611.095 478.917,597.993L478.917,354.747Z" style="fill:none;"/>
                <clipPath id="_clip1">
                    <path d="M478.917,354.747L469,354.747C464.323,354.747 460.527,351.818 460.527,348.209C460.527,344.601 464.323,341.672 469,341.672L841.828,341.672C846.504,341.672 850.3,344.601 850.3,348.209C850.3,351.818 846.504,354.747 841.828,354.747L831.91,354.747L831.91,597.993C831.91,611.095 818.145,621.716 801.165,621.716L509.662,621.716C492.682,621.716 478.917,611.095 478.917,597.993L478.917,354.747Z"/>
                </clipPath>
                <g clip-path="url(#_clip1)">
                    <g id="sburro" transform="matrix(2.03334,0,0,2.33014,82.6883,-209.071)">
                        <path d="M29.373,346.905C29.373,346.905 83.968,320.996 144.234,341.234C204.5,361.473 214.954,354.434 274.882,335.561C334.811,316.688 448.306,363.476 448.306,363.476C448.306,363.476 485.009,382.318 576.961,367.536C576.961,423.806 576.344,513.294 576.344,513.294L32.547,513.294L29.373,346.905ZM186.046,417.868C178.23,417.868 172.064,415.504 171.95,419.464C171.688,428.538 199.976,429.235 200.273,419.464C200.394,415.504 193.862,417.868 186.046,417.868ZM109.323,378.686C100.147,378.686 91.385,375.983 91.385,387.156C91.385,398.329 99.886,403.604 109.062,403.604C118.237,403.604 124.634,398.329 124.634,387.156C124.634,375.983 118.498,378.686 109.323,378.686ZM125.683,358.475C123.771,358.475 122.219,360.365 122.219,362.694C122.219,365.022 123.771,366.913 125.683,366.913C127.595,366.913 129.148,365.022 129.148,362.694C129.148,360.365 127.595,358.475 125.683,358.475ZM305.517,340.188C296.715,340.188 287.965,343.764 288.428,350.46C288.987,358.545 296.78,354.233 305.458,353.38C312.506,352.688 320.428,356.995 320.326,350.46C320.227,344.048 314.32,340.188 305.517,340.188Z" style="fill:white;"/>
                    </g>
                    <g transform="matrix(2.03334,0,0,1.56895,229.222,11.5695)">
                        <path d="M122.801,260.765L156.998,260.765" style="fill:none;stroke:white;stroke-width:1px;"/>
                    </g>
                    <g transform="matrix(2.03334,0,0,1.56895,229.222,35.194)">
                        <path d="M122.801,260.765L156.998,260.765" style="fill:none;stroke:white;stroke-width:1px;"/>
                    </g>
                    <g transform="matrix(2.03334,0,0,1.56895,229.222,58.8184)">
                        <path d="M122.801,260.765L156.998,260.765" style="fill:none;stroke:white;stroke-width:1px;"/>
                    </g>
                    <g transform="matrix(2.03334,0,0,1.56895,229.222,82.4429)">
                        <path d="M122.801,260.765L156.998,260.765" style="fill:none;stroke:white;stroke-width:1px;"/>
                    </g>
                    <g transform="matrix(2.03334,0,0,1.56895,229.222,106.067)">
                        <path d="M122.801,260.765L156.998,260.765" style="fill:none;stroke:white;stroke-width:1px;"/>
                    </g>
                    <g transform="matrix(2.03334,0,0,1.56895,229.222,129.692)">
                        <path d="M122.801,260.765L156.998,260.765" style="fill:none;stroke:white;stroke-width:1px;"/>
                    </g>
                    <g transform="matrix(2.03334,0,0,1.56895,229.222,153.316)">
                        <path d="M122.801,260.765L156.998,260.765" style="fill:none;stroke:white;stroke-width:1px;"/>
                    </g>
                    <g transform="matrix(2.03334,0,0,1.56895,229.222,176.941)">
                        <path d="M122.801,260.765L156.998,260.765" style="fill:none;stroke:white;stroke-width:1px;"/>
                    </g>
                </g>
                <path d="M478.917,354.747L469,354.747C464.323,354.747 460.527,351.818 460.527,348.209C460.527,344.601 464.323,341.672 469,341.672L841.828,341.672C846.504,341.672 850.3,344.601 850.3,348.209C850.3,351.818 846.504,354.747 841.828,354.747L831.91,354.747L831.91,597.993C831.91,611.095 818.145,621.716 801.165,621.716L509.662,621.716C492.682,621.716 478.917,611.095 478.917,597.993L478.917,354.747Z" style="fill:none;stroke:white;stroke-width:1.76px;"/>
            </g>
        </g>
    </g>
</svg>
