<svg width="437" height="108" viewBox="0 0 437 108" fill="none" xmlns="http://www.w3.org/2000/svg">
<path d="M160.469 85.375H159.812C158.844 85.375 157.922 85.4219 157.047 85.5156C156.188 85.625 155.266 85.7734 154.281 85.9609C154.484 82.5234 154.641 79.2969 154.75 76.2812C154.859 73.25 154.914 70.3125 154.914 67.4688C154.914 63.8281 154.82 60.2344 154.633 56.6875L148.727 57.1094C148.711 56.5781 148.695 56.0938 148.68 55.6562C148.664 55.2031 148.641 54.7734 148.609 54.3672C148.578 53.9453 148.539 53.5234 148.492 53.1016C148.445 52.6641 148.391 52.1797 148.328 51.6484H151.164C152.414 51.6484 153.633 51.6406 154.82 51.625C156.023 51.6094 157.219 51.5859 158.406 51.5547C159.609 51.5234 160.82 51.4844 162.039 51.4375C163.273 51.3906 164.547 51.3281 165.859 51.25C165.781 52.0469 165.727 52.7266 165.695 53.2891C165.68 53.8359 165.672 54.4062 165.672 55V56.2422L159.906 56.3828C159.859 57.8828 159.828 59.3594 159.812 60.8125C159.812 62.25 159.812 63.7031 159.812 65.1719C159.812 68.5781 159.867 71.9531 159.977 75.2969C160.086 78.6406 160.25 82 160.469 85.375ZM175.197 85.9609L168.939 86.4297C169.189 83.6328 169.369 80.9375 169.478 78.3438C169.603 75.7344 169.666 73.125 169.666 70.5156C169.666 68.6719 169.634 66.8281 169.572 64.9844C169.525 63.125 169.431 61.2188 169.291 59.2656L174.564 58.9844C174.533 59.3281 174.509 59.6641 174.494 59.9922C174.478 60.3203 174.47 60.6406 174.47 60.9531C175.017 60.1094 175.611 59.4531 176.252 58.9844C176.908 58.5 177.517 58.1484 178.08 57.9297C178.72 57.6641 179.369 57.5 180.025 57.4375C181.166 57.4375 182.142 57.6172 182.955 57.9766C183.767 58.3203 184.431 58.7734 184.947 59.3359C185.462 59.8828 185.837 60.5 186.072 61.1875C186.306 61.8594 186.423 62.5156 186.423 63.1562C186.423 63.8125 186.353 64.4766 186.212 65.1484C186.072 65.8203 185.83 66.4297 185.486 66.9766C185.158 67.5078 184.712 67.9453 184.15 68.2891C183.603 68.6172 182.923 68.7812 182.111 68.7812C181.298 68.7812 180.658 68.6328 180.189 68.3359C179.72 68.0391 179.361 67.6875 179.111 67.2812C178.877 66.8594 178.72 66.4297 178.642 65.9922C178.58 65.5391 178.548 65.1562 178.548 64.8438C178.548 64.625 178.587 64.3828 178.666 64.1172C178.744 63.8359 178.861 63.5547 179.017 63.2734C179.173 62.9922 179.369 62.7188 179.603 62.4531C179.837 62.1719 180.111 61.9141 180.423 61.6797C180.33 61.6484 180.228 61.625 180.119 61.6094C180.025 61.5938 179.931 61.5859 179.837 61.5859C179.056 61.5859 178.361 61.8359 177.752 62.3359C177.142 62.8203 176.611 63.5 176.158 64.375C175.72 65.25 175.353 66.2812 175.056 67.4688C174.775 68.6562 174.564 69.9531 174.423 71.3594C174.502 73.7812 174.611 76.1797 174.752 78.5547C174.892 80.9297 175.041 83.3984 175.197 85.9609ZM197.237 52.1172C197.237 52.6172 197.144 53.0938 196.956 53.5469C196.769 53.9844 196.511 54.3672 196.183 54.6953C195.855 55.0234 195.464 55.2891 195.011 55.4922C194.573 55.6797 194.105 55.7734 193.605 55.7734C193.105 55.7734 192.628 55.6797 192.175 55.4922C191.737 55.2891 191.355 55.0234 191.027 54.6953C190.698 54.3672 190.433 53.9844 190.23 53.5469C190.042 53.0938 189.948 52.6172 189.948 52.1172C189.948 51.6172 190.042 51.1484 190.23 50.7109C190.433 50.2578 190.698 49.8672 191.027 49.5391C191.355 49.2109 191.737 48.9531 192.175 48.7656C192.628 48.5625 193.105 48.4609 193.605 48.4609C194.105 48.4609 194.573 48.5625 195.011 48.7656C195.464 48.9531 195.855 49.2109 196.183 49.5391C196.511 49.8672 196.769 50.2578 196.956 50.7109C197.144 51.1484 197.237 51.6172 197.237 52.1172ZM197.237 59.2188C197.112 60.4531 197.003 61.7891 196.909 63.2266C196.831 64.6484 196.761 66.1094 196.698 67.6094C196.652 69.1094 196.612 70.6172 196.581 72.1328C196.55 73.6484 196.527 75.0938 196.511 76.4688C196.495 77.8438 196.48 79.1328 196.464 80.3359C196.464 81.5234 196.464 82.5469 196.464 83.4062V86.0547L191.144 86.2422C191.175 85.1641 191.191 84.1172 191.191 83.1016C191.191 82.0859 191.191 81.0703 191.191 80.0547C191.191 78.2891 191.175 76.5703 191.144 74.8984C191.112 73.2109 191.058 71.5234 190.98 69.8359C190.917 68.1484 190.831 66.4375 190.722 64.7031C190.612 62.9688 190.48 61.1719 190.323 59.3125L197.237 59.2188ZM221.013 58.9844C220.263 61.3125 219.559 63.5703 218.903 65.7578C218.247 67.9453 217.63 70.1328 217.052 72.3203C216.473 74.4922 215.927 76.6875 215.411 78.9062C214.895 81.125 214.411 83.4297 213.958 85.8203L207.184 85.9609C206.763 83.6328 206.333 81.3828 205.895 79.2109C205.473 77.0234 205.02 74.8516 204.536 72.6953C204.067 70.5391 203.567 68.3672 203.036 66.1797C202.505 63.9922 201.934 61.7344 201.325 59.4062L208.052 59.125C208.411 62.4688 208.809 65.8828 209.247 69.3672C209.684 72.8516 210.2 76.2734 210.794 79.6328C211.559 76.2422 212.177 72.7891 212.645 69.2734C213.13 65.7422 213.505 62.2812 213.77 58.8906L221.013 58.9844ZM231.287 52.1172C231.287 52.6172 231.194 53.0938 231.006 53.5469C230.819 53.9844 230.561 54.3672 230.233 54.6953C229.905 55.0234 229.514 55.2891 229.061 55.4922C228.623 55.6797 228.155 55.7734 227.655 55.7734C227.155 55.7734 226.678 55.6797 226.225 55.4922C225.787 55.2891 225.405 55.0234 225.077 54.6953C224.748 54.3672 224.483 53.9844 224.28 53.5469C224.092 53.0938 223.998 52.6172 223.998 52.1172C223.998 51.6172 224.092 51.1484 224.28 50.7109C224.483 50.2578 224.748 49.8672 225.077 49.5391C225.405 49.2109 225.787 48.9531 226.225 48.7656C226.678 48.5625 227.155 48.4609 227.655 48.4609C228.155 48.4609 228.623 48.5625 229.061 48.7656C229.514 48.9531 229.905 49.2109 230.233 49.5391C230.561 49.8672 230.819 50.2578 231.006 50.7109C231.194 51.1484 231.287 51.6172 231.287 52.1172ZM231.287 59.2188C231.162 60.4531 231.053 61.7891 230.959 63.2266C230.881 64.6484 230.811 66.1094 230.748 67.6094C230.702 69.1094 230.662 70.6172 230.631 72.1328C230.6 73.6484 230.577 75.0938 230.561 76.4688C230.545 77.8438 230.53 79.1328 230.514 80.3359C230.514 81.5234 230.514 82.5469 230.514 83.4062V86.0547L225.194 86.2422C225.225 85.1641 225.241 84.1172 225.241 83.1016C225.241 82.0859 225.241 81.0703 225.241 80.0547C225.241 78.2891 225.225 76.5703 225.194 74.8984C225.162 73.2109 225.108 71.5234 225.03 69.8359C224.967 68.1484 224.881 66.4375 224.772 64.7031C224.662 62.9688 224.53 61.1719 224.373 59.3125L231.287 59.2188ZM247.773 85.9609C247.68 85.4766 247.594 84.9844 247.516 84.4844C247.438 83.9844 247.375 83.4688 247.328 82.9375C246.609 84 245.75 84.8125 244.75 85.375C243.75 85.9531 242.656 86.2422 241.469 86.2422C240.859 86.2422 240.234 86.1406 239.594 85.9375C238.953 85.75 238.367 85.4141 237.836 84.9297C237.32 84.4453 236.891 83.7891 236.547 82.9609C236.219 82.1172 236.055 81.0547 236.055 79.7734C236.055 78.7109 236.211 77.7891 236.523 77.0078C236.836 76.2109 237.242 75.5156 237.742 74.9219C238.242 74.3281 238.805 73.8125 239.43 73.375C240.055 72.9375 240.672 72.5469 241.281 72.2031C241.906 71.8594 242.5 71.5391 243.062 71.2422C243.625 70.9453 244.086 70.6484 244.445 70.3516C245.133 69.8047 245.727 69.2266 246.227 68.6172C246.742 67.9922 247.156 67.3438 247.469 66.6719C247.406 65.5938 247.289 64.7109 247.117 64.0234C246.961 63.3203 246.75 62.7656 246.484 62.3594C246.219 61.9375 245.891 61.6484 245.5 61.4922C245.125 61.3203 244.695 61.2344 244.211 61.2344C243.492 61.2344 242.883 61.3906 242.383 61.7031C241.898 62.0156 241.5 62.3906 241.188 62.8281C241.578 63.0781 241.875 63.3438 242.078 63.625C242.297 63.9062 242.461 64.1797 242.57 64.4453C242.695 64.7422 242.766 65.0469 242.781 65.3594C242.781 66.4219 242.477 67.2344 241.867 67.7969C241.273 68.3594 240.508 68.6406 239.57 68.6406C239.086 68.6406 238.641 68.5312 238.234 68.3125C237.828 68.0781 237.469 67.7578 237.156 67.3516C236.859 66.9453 236.625 66.4609 236.453 65.8984C236.281 65.3359 236.195 64.7266 236.195 64.0703C236.195 63.4141 236.344 62.7188 236.641 61.9844C236.938 61.25 237.414 60.5703 238.07 59.9453C238.727 59.3047 239.57 58.7812 240.602 58.375C241.633 57.9531 242.883 57.7422 244.352 57.7422C245.82 57.7422 247.078 58.0312 248.125 58.6094C249.172 59.1719 250.031 59.9297 250.703 60.8828C251.375 61.8203 251.859 62.9062 252.156 64.1406C252.469 65.375 252.625 66.6484 252.625 67.9609C252.625 68.9453 252.617 70.0156 252.602 71.1719C252.586 72.3281 252.578 73.5156 252.578 74.7344C252.578 75.75 252.586 76.7656 252.602 77.7812C252.617 78.7969 252.648 79.7812 252.695 80.7344C252.742 81.6719 252.805 82.5625 252.883 83.4062C252.961 84.2344 253.062 84.9766 253.188 85.6328L247.773 85.9609ZM247.422 72.2266C246.875 72.8828 246.289 73.4453 245.664 73.9141C245.195 74.2422 244.688 74.6094 244.141 75.0156C243.609 75.4219 243.109 75.8516 242.641 76.3047C242.188 76.7578 241.805 77.2344 241.492 77.7344C241.195 78.2188 241.047 78.7188 241.047 79.2344C241.047 79.9375 241.219 80.5391 241.562 81.0391C241.906 81.5391 242.391 81.7891 243.016 81.7891C243.594 81.7891 244.109 81.6328 244.562 81.3203C245.016 81.0078 245.414 80.625 245.758 80.1719C246.117 79.7031 246.414 79.2031 246.648 78.6719C246.898 78.1406 247.094 77.6562 247.234 77.2188L247.422 72.2266ZM291.034 77.9453C291.034 79.4141 290.769 80.6953 290.238 81.7891C289.706 82.8672 289.027 83.7656 288.198 84.4844C287.37 85.1875 286.456 85.7109 285.456 86.0547C284.456 86.4141 283.495 86.5938 282.573 86.5938C281.042 86.5938 279.55 86.2422 278.097 85.5391C276.644 84.8516 275.339 83.7734 274.183 82.3047C273.042 80.8203 272.12 78.9219 271.417 76.6094C270.73 74.2812 270.386 71.4922 270.386 68.2422C270.386 66.0703 270.55 64.1328 270.878 62.4297C271.222 60.7266 271.675 59.2266 272.238 57.9297C272.816 56.6328 273.488 55.5312 274.253 54.625C275.034 53.7031 275.87 52.9609 276.761 52.3984C277.652 51.8203 278.573 51.3984 279.527 51.1328C280.48 50.8672 281.417 50.7344 282.339 50.7344C283.73 50.7344 284.925 50.9297 285.925 51.3203C286.941 51.7109 287.777 52.2109 288.433 52.8203C289.089 53.4297 289.573 54.1094 289.886 54.8594C290.198 55.6094 290.355 56.3438 290.355 57.0625C290.355 57.7812 290.253 58.4297 290.05 59.0078C289.863 59.5703 289.605 60.0469 289.277 60.4375C288.948 60.8281 288.558 61.125 288.105 61.3281C287.652 61.5312 287.167 61.6328 286.652 61.6328C286.214 61.6328 285.777 61.5547 285.339 61.3984C284.902 61.2422 284.511 61.0156 284.167 60.7188C283.823 60.4219 283.542 60.0625 283.323 59.6406C283.12 59.2031 283.019 58.7109 283.019 58.1641C283.034 57.8516 283.073 57.5234 283.136 57.1797C283.198 56.8828 283.292 56.5625 283.417 56.2188C283.558 55.8594 283.761 55.5 284.027 55.1406C283.792 54.9219 283.542 54.75 283.277 54.625C283.011 54.4844 282.769 54.3828 282.55 54.3203C282.284 54.2578 282.019 54.2109 281.753 54.1797C281.144 54.1797 280.605 54.3672 280.136 54.7422C279.667 55.1172 279.261 55.6406 278.917 56.3125C278.573 56.9688 278.284 57.75 278.05 58.6562C277.816 59.5625 277.628 60.5469 277.488 61.6094C277.363 62.6719 277.269 63.7891 277.206 64.9609C277.144 66.1172 277.113 67.2891 277.113 68.4766C277.113 70.2578 277.206 72.0156 277.394 73.75C277.597 75.4688 277.917 77.0156 278.355 78.3906C278.808 79.75 279.402 80.8516 280.136 81.6953C280.886 82.5234 281.8 82.9375 282.878 82.9375C283.534 82.8906 284.128 82.7031 284.659 82.375C284.894 82.2344 285.12 82.0625 285.339 81.8594C285.558 81.6406 285.753 81.375 285.925 81.0625C286.113 80.7344 286.261 80.3594 286.37 79.9375C286.495 79.5156 286.573 79.0234 286.605 78.4609C286.339 78.5703 286.034 78.625 285.691 78.625C285.316 78.625 284.948 78.5469 284.589 78.3906C284.245 78.2188 283.933 77.9922 283.652 77.7109C283.37 77.4141 283.144 77.0703 282.972 76.6797C282.8 76.2734 282.714 75.8281 282.714 75.3438C282.714 74.6094 282.878 74.0078 283.206 73.5391C283.55 73.0547 283.941 72.6719 284.378 72.3906C284.816 72.1094 285.245 71.9141 285.667 71.8047C286.089 71.6797 286.386 71.6172 286.558 71.6172C286.683 71.6172 286.878 71.6406 287.144 71.6875C287.409 71.7188 287.706 71.8047 288.034 71.9453C288.378 72.0859 288.722 72.2969 289.066 72.5781C289.425 72.8438 289.745 73.2109 290.027 73.6797C290.323 74.1484 290.566 74.7344 290.753 75.4375C290.941 76.125 291.034 76.9609 291.034 77.9453ZM302.2 52.1172C302.2 52.6172 302.106 53.0938 301.919 53.5469C301.731 53.9844 301.473 54.3672 301.145 54.6953C300.817 55.0234 300.427 55.2891 299.973 55.4922C299.536 55.6797 299.067 55.7734 298.567 55.7734C298.067 55.7734 297.591 55.6797 297.137 55.4922C296.7 55.2891 296.317 55.0234 295.989 54.6953C295.661 54.3672 295.395 53.9844 295.192 53.5469C295.005 53.0938 294.911 52.6172 294.911 52.1172C294.911 51.6172 295.005 51.1484 295.192 50.7109C295.395 50.2578 295.661 49.8672 295.989 49.5391C296.317 49.2109 296.7 48.9531 297.137 48.7656C297.591 48.5625 298.067 48.4609 298.567 48.4609C299.067 48.4609 299.536 48.5625 299.973 48.7656C300.427 48.9531 300.817 49.2109 301.145 49.5391C301.473 49.8672 301.731 50.2578 301.919 50.7109C302.106 51.1484 302.2 51.6172 302.2 52.1172ZM302.2 59.2188C302.075 60.4531 301.966 61.7891 301.872 63.2266C301.794 64.6484 301.723 66.1094 301.661 67.6094C301.614 69.1094 301.575 70.6172 301.544 72.1328C301.512 73.6484 301.489 75.0938 301.473 76.4688C301.458 77.8438 301.442 79.1328 301.427 80.3359C301.427 81.5234 301.427 82.5469 301.427 83.4062V86.0547L296.106 86.2422C296.137 85.1641 296.153 84.1172 296.153 83.1016C296.153 82.0859 296.153 81.0703 296.153 80.0547C296.153 78.2891 296.137 76.5703 296.106 74.8984C296.075 73.2109 296.02 71.5234 295.942 69.8359C295.88 68.1484 295.794 66.4375 295.684 64.7031C295.575 62.9688 295.442 61.1719 295.286 59.3125L302.2 59.2188ZM315.897 86.3359C314.35 86.3359 313.014 86 311.889 85.3281C310.78 84.6562 309.858 83.7188 309.123 82.5156C308.405 81.3125 307.873 79.8828 307.53 78.2266C307.186 76.5703 307.014 74.7656 307.014 72.8125C307.014 70.5469 307.217 68.4688 307.623 66.5781C308.03 64.6875 308.623 63.0625 309.405 61.7031C310.202 60.3438 311.178 59.2891 312.334 58.5391C313.506 57.7734 314.85 57.3906 316.366 57.3906C317.897 57.3906 319.217 57.7109 320.327 58.3516C321.436 58.9922 322.35 59.8906 323.069 61.0469C323.803 62.2031 324.342 63.5859 324.686 65.1953C325.03 66.8047 325.202 68.5781 325.202 70.5156C325.202 71.5156 325.139 72.6016 325.014 73.7734C324.905 74.9453 324.709 76.1172 324.428 77.2891C324.163 78.4609 323.803 79.5938 323.35 80.6875C322.897 81.7656 322.327 82.7266 321.639 83.5703C320.952 84.4141 320.131 85.0859 319.178 85.5859C318.241 86.0859 317.147 86.3359 315.897 86.3359ZM319.553 68.7812C319.553 67.5938 319.498 66.5312 319.389 65.5938C319.28 64.6406 319.1 63.8359 318.85 63.1797C318.616 62.5234 318.311 62.0234 317.936 61.6797C317.577 61.3203 317.139 61.1406 316.623 61.1406C316.061 61.1406 315.538 61.4375 315.053 62.0312C314.569 62.625 314.139 63.4844 313.764 64.6094C313.405 65.7344 313.116 67.1094 312.897 68.7344C312.694 70.3438 312.592 72.1641 312.592 74.1953C312.592 75.5078 312.655 76.6875 312.78 77.7344C312.905 78.7656 313.092 79.6484 313.342 80.3828C313.592 81.1016 313.897 81.6562 314.256 82.0469C314.631 82.4219 315.069 82.6094 315.569 82.6094C316.069 82.6094 316.514 82.4062 316.905 82C317.295 81.5781 317.631 81.0156 317.913 80.3125C318.209 79.6094 318.459 78.7969 318.663 77.875C318.881 76.9375 319.053 75.9609 319.178 74.9453C319.303 73.9141 319.397 72.8672 319.459 71.8047C319.522 70.7422 319.553 69.7344 319.553 68.7812ZM338.594 49.375C338.469 50.9844 338.367 52.5703 338.289 54.1328C338.211 55.6797 338.133 57.2344 338.055 58.7969C338.742 58.7656 339.422 58.7422 340.094 58.7266C340.766 58.6953 341.453 58.6562 342.156 58.6094L342.25 64.6094C341.5 64.4844 340.758 64.3828 340.023 64.3047C339.289 64.2266 338.57 64.1641 337.867 64.1172C337.82 65.4453 337.789 66.7578 337.773 68.0547C337.773 69.3516 337.773 70.6641 337.773 71.9922C337.773 74.3672 337.797 76.7266 337.844 79.0703C337.906 81.4141 338 83.7734 338.125 86.1484L332.008 86.0547C332.211 82.3828 332.375 78.7188 332.5 75.0625C332.641 71.3906 332.734 67.6953 332.781 63.9766C332.125 64.0078 331.469 64.0469 330.812 64.0938C330.156 64.125 329.484 64.1641 328.797 64.2109L328.984 58.6562C329.625 58.7031 330.258 58.7422 330.883 58.7734C331.523 58.7891 332.156 58.8125 332.781 58.8438C332.781 57.2812 332.766 55.7266 332.734 54.1797C332.703 52.6172 332.672 51.0469 332.641 49.4688L338.594 49.375ZM354.728 86.3359C353.181 86.3359 351.845 86 350.72 85.3281C349.611 84.6562 348.689 83.7188 347.955 82.5156C347.236 81.3125 346.705 79.8828 346.361 78.2266C346.017 76.5703 345.845 74.7656 345.845 72.8125C345.845 70.5469 346.048 68.4688 346.455 66.5781C346.861 64.6875 347.455 63.0625 348.236 61.7031C349.033 60.3438 350.009 59.2891 351.166 58.5391C352.337 57.7734 353.681 57.3906 355.197 57.3906C356.728 57.3906 358.048 57.7109 359.158 58.3516C360.267 58.9922 361.181 59.8906 361.9 61.0469C362.634 62.2031 363.173 63.5859 363.517 65.1953C363.861 66.8047 364.033 68.5781 364.033 70.5156C364.033 71.5156 363.97 72.6016 363.845 73.7734C363.736 74.9453 363.541 76.1172 363.259 77.2891C362.994 78.4609 362.634 79.5938 362.181 80.6875C361.728 81.7656 361.158 82.7266 360.47 83.5703C359.783 84.4141 358.962 85.0859 358.009 85.5859C357.072 86.0859 355.978 86.3359 354.728 86.3359ZM358.384 68.7812C358.384 67.5938 358.33 66.5312 358.22 65.5938C358.111 64.6406 357.931 63.8359 357.681 63.1797C357.447 62.5234 357.142 62.0234 356.767 61.6797C356.408 61.3203 355.97 61.1406 355.455 61.1406C354.892 61.1406 354.369 61.4375 353.884 62.0312C353.4 62.625 352.97 63.4844 352.595 64.6094C352.236 65.7344 351.947 67.1094 351.728 68.7344C351.525 70.3438 351.423 72.1641 351.423 74.1953C351.423 75.5078 351.486 76.6875 351.611 77.7344C351.736 78.7656 351.923 79.6484 352.173 80.3828C352.423 81.1016 352.728 81.6562 353.087 82.0469C353.462 82.4219 353.9 82.6094 354.4 82.6094C354.9 82.6094 355.345 82.4062 355.736 82C356.127 81.5781 356.462 81.0156 356.744 80.3125C357.041 79.6094 357.291 78.7969 357.494 77.875C357.712 76.9375 357.884 75.9609 358.009 74.9453C358.134 73.9141 358.228 72.8672 358.291 71.8047C358.353 70.7422 358.384 69.7344 358.384 68.7812ZM375.175 48.9531C375.081 50.8594 374.995 52.625 374.917 54.25C374.839 55.875 374.769 57.4062 374.706 58.8438C374.659 60.2812 374.62 61.6484 374.589 62.9453C374.558 64.2422 374.527 65.5234 374.495 66.7891C374.48 68.0547 374.464 69.3281 374.448 70.6094C374.448 71.8906 374.448 73.2344 374.448 74.6406C374.448 76.2031 374.448 77.875 374.448 79.6562C374.448 81.4375 374.464 83.4141 374.495 85.5859L369.175 85.4688C369.269 83.1094 369.331 80.7891 369.363 78.5078C369.394 76.2109 369.409 73.8594 369.409 71.4531C369.409 69.8438 369.402 68.1953 369.386 66.5078C369.37 64.8047 369.347 63.0312 369.316 61.1875C369.284 59.3281 369.245 57.375 369.198 55.3281C369.167 53.2812 369.128 51.1094 369.081 48.8125L375.175 48.9531ZM391.567 85.9609C391.473 85.4766 391.387 84.9844 391.309 84.4844C391.231 83.9844 391.169 83.4688 391.122 82.9375C390.403 84 389.544 84.8125 388.544 85.375C387.544 85.9531 386.45 86.2422 385.262 86.2422C384.653 86.2422 384.028 86.1406 383.387 85.9375C382.747 85.75 382.161 85.4141 381.63 84.9297C381.114 84.4453 380.684 83.7891 380.341 82.9609C380.012 82.1172 379.848 81.0547 379.848 79.7734C379.848 78.7109 380.005 77.7891 380.317 77.0078C380.63 76.2109 381.036 75.5156 381.536 74.9219C382.036 74.3281 382.598 73.8125 383.223 73.375C383.848 72.9375 384.466 72.5469 385.075 72.2031C385.7 71.8594 386.294 71.5391 386.856 71.2422C387.419 70.9453 387.88 70.6484 388.239 70.3516C388.927 69.8047 389.52 69.2266 390.02 68.6172C390.536 67.9922 390.95 67.3438 391.262 66.6719C391.2 65.5938 391.083 64.7109 390.911 64.0234C390.755 63.3203 390.544 62.7656 390.278 62.3594C390.012 61.9375 389.684 61.6484 389.294 61.4922C388.919 61.3203 388.489 61.2344 388.005 61.2344C387.286 61.2344 386.677 61.3906 386.177 61.7031C385.692 62.0156 385.294 62.3906 384.981 62.8281C385.372 63.0781 385.669 63.3438 385.872 63.625C386.091 63.9062 386.255 64.1797 386.364 64.4453C386.489 64.7422 386.559 65.0469 386.575 65.3594C386.575 66.4219 386.27 67.2344 385.661 67.7969C385.067 68.3594 384.302 68.6406 383.364 68.6406C382.88 68.6406 382.434 68.5312 382.028 68.3125C381.622 68.0781 381.262 67.7578 380.95 67.3516C380.653 66.9453 380.419 66.4609 380.247 65.8984C380.075 65.3359 379.989 64.7266 379.989 64.0703C379.989 63.4141 380.137 62.7188 380.434 61.9844C380.731 61.25 381.208 60.5703 381.864 59.9453C382.52 59.3047 383.364 58.7812 384.395 58.375C385.427 57.9531 386.677 57.7422 388.145 57.7422C389.614 57.7422 390.872 58.0312 391.919 58.6094C392.966 59.1719 393.825 59.9297 394.497 60.8828C395.169 61.8203 395.653 62.9062 395.95 64.1406C396.262 65.375 396.419 66.6484 396.419 67.9609C396.419 68.9453 396.411 70.0156 396.395 71.1719C396.38 72.3281 396.372 73.5156 396.372 74.7344C396.372 75.75 396.38 76.7656 396.395 77.7812C396.411 78.7969 396.442 79.7812 396.489 80.7344C396.536 81.6719 396.598 82.5625 396.677 83.4062C396.755 84.2344 396.856 84.9766 396.981 85.6328L391.567 85.9609ZM391.216 72.2266C390.669 72.8828 390.083 73.4453 389.458 73.9141C388.989 74.2422 388.481 74.6094 387.934 75.0156C387.403 75.4219 386.903 75.8516 386.434 76.3047C385.981 76.7578 385.598 77.2344 385.286 77.7344C384.989 78.2188 384.841 78.7188 384.841 79.2344C384.841 79.9375 385.012 80.5391 385.356 81.0391C385.7 81.5391 386.184 81.7891 386.809 81.7891C387.387 81.7891 387.903 81.6328 388.356 81.3203C388.809 81.0078 389.208 80.625 389.552 80.1719C389.911 79.7031 390.208 79.2031 390.442 78.6719C390.692 78.1406 390.887 77.6562 391.028 77.2188L391.216 72.2266ZM410.584 49.375C410.459 50.9844 410.358 52.5703 410.28 54.1328C410.202 55.6797 410.123 57.2344 410.045 58.7969C410.733 58.7656 411.413 58.7422 412.084 58.7266C412.756 58.6953 413.444 58.6562 414.147 58.6094L414.241 64.6094C413.491 64.4844 412.748 64.3828 412.014 64.3047C411.28 64.2266 410.561 64.1641 409.858 64.1172C409.811 65.4453 409.78 66.7578 409.764 68.0547C409.764 69.3516 409.764 70.6641 409.764 71.9922C409.764 74.3672 409.788 76.7266 409.834 79.0703C409.897 81.4141 409.991 83.7734 410.116 86.1484L403.998 86.0547C404.202 82.3828 404.366 78.7188 404.491 75.0625C404.631 71.3906 404.725 67.6953 404.772 63.9766C404.116 64.0078 403.459 64.0469 402.803 64.0938C402.147 64.125 401.475 64.1641 400.788 64.2109L400.975 58.6562C401.616 58.7031 402.248 58.7422 402.873 58.7734C403.514 58.7891 404.147 58.8125 404.772 58.8438C404.772 57.2812 404.756 55.7266 404.725 54.1797C404.694 52.6172 404.663 51.0469 404.631 49.4688L410.584 49.375ZM429.648 85.9609C429.555 85.4766 429.469 84.9844 429.391 84.4844C429.312 83.9844 429.25 83.4688 429.203 82.9375C428.484 84 427.625 84.8125 426.625 85.375C425.625 85.9531 424.531 86.2422 423.344 86.2422C422.734 86.2422 422.109 86.1406 421.469 85.9375C420.828 85.75 420.242 85.4141 419.711 84.9297C419.195 84.4453 418.766 83.7891 418.422 82.9609C418.094 82.1172 417.93 81.0547 417.93 79.7734C417.93 78.7109 418.086 77.7891 418.398 77.0078C418.711 76.2109 419.117 75.5156 419.617 74.9219C420.117 74.3281 420.68 73.8125 421.305 73.375C421.93 72.9375 422.547 72.5469 423.156 72.2031C423.781 71.8594 424.375 71.5391 424.938 71.2422C425.5 70.9453 425.961 70.6484 426.32 70.3516C427.008 69.8047 427.602 69.2266 428.102 68.6172C428.617 67.9922 429.031 67.3438 429.344 66.6719C429.281 65.5938 429.164 64.7109 428.992 64.0234C428.836 63.3203 428.625 62.7656 428.359 62.3594C428.094 61.9375 427.766 61.6484 427.375 61.4922C427 61.3203 426.57 61.2344 426.086 61.2344C425.367 61.2344 424.758 61.3906 424.258 61.7031C423.773 62.0156 423.375 62.3906 423.062 62.8281C423.453 63.0781 423.75 63.3438 423.953 63.625C424.172 63.9062 424.336 64.1797 424.445 64.4453C424.57 64.7422 424.641 65.0469 424.656 65.3594C424.656 66.4219 424.352 67.2344 423.742 67.7969C423.148 68.3594 422.383 68.6406 421.445 68.6406C420.961 68.6406 420.516 68.5312 420.109 68.3125C419.703 68.0781 419.344 67.7578 419.031 67.3516C418.734 66.9453 418.5 66.4609 418.328 65.8984C418.156 65.3359 418.07 64.7266 418.07 64.0703C418.07 63.4141 418.219 62.7188 418.516 61.9844C418.812 61.25 419.289 60.5703 419.945 59.9453C420.602 59.3047 421.445 58.7812 422.477 58.375C423.508 57.9531 424.758 57.7422 426.227 57.7422C427.695 57.7422 428.953 58.0312 430 58.6094C431.047 59.1719 431.906 59.9297 432.578 60.8828C433.25 61.8203 433.734 62.9062 434.031 64.1406C434.344 65.375 434.5 66.6484 434.5 67.9609C434.5 68.9453 434.492 70.0156 434.477 71.1719C434.461 72.3281 434.453 73.5156 434.453 74.7344C434.453 75.75 434.461 76.7656 434.477 77.7812C434.492 78.7969 434.523 79.7812 434.57 80.7344C434.617 81.6719 434.68 82.5625 434.758 83.4062C434.836 84.2344 434.938 84.9766 435.062 85.6328L429.648 85.9609ZM429.297 72.2266C428.75 72.8828 428.164 73.4453 427.539 73.9141C427.07 74.2422 426.562 74.6094 426.016 75.0156C425.484 75.4219 424.984 75.8516 424.516 76.3047C424.062 76.7578 423.68 77.2344 423.367 77.7344C423.07 78.2188 422.922 78.7188 422.922 79.2344C422.922 79.9375 423.094 80.5391 423.438 81.0391C423.781 81.5391 424.266 81.7891 424.891 81.7891C425.469 81.7891 425.984 81.6328 426.438 81.3203C426.891 81.0078 427.289 80.625 427.633 80.1719C427.992 79.7031 428.289 79.2031 428.523 78.6719C428.773 78.1406 428.969 77.6562 429.109 77.2188L429.297 72.2266Z" fill="white"/>
<path d="M111.708 71.0183C110.908 71.0183 110.508 70.7747 110.508 70.2877V65.9954C110.446 64.9604 110.415 64.1081 110.415 63.4384C110.415 62.7078 110.415 62.1294 110.415 61.7032C110.415 60.0594 110.6 58.6591 110.969 57.5023C111.4 56.2846 112.508 55.0061 114.292 53.6667L118.354 50.653C119.954 49.4353 121.338 48.4307 122.508 47.6393C123.738 46.7869 124.692 45.9346 125.369 45.0822C126.046 44.169 126.385 43.0122 126.385 41.6119C126.385 39.2983 125.615 37.4718 124.077 36.1324C122.6 34.7321 120.877 34.032 118.908 34.032C118.292 34.032 117.462 34.0928 116.415 34.2146C115.431 34.2755 114.477 34.3668 113.554 34.4886C112.692 34.6104 112.138 34.6712 111.892 34.6712C110.908 34.6712 109.923 34.3973 108.938 33.8493C108.015 33.3014 107.554 32.3577 107.554 31.0183C107.554 29.5571 107.769 28.5221 108.2 27.9132C109.369 27.3044 110.908 27 112.815 27C114.662 27 116.631 27.4262 118.723 28.2785C120.815 29.1309 122.785 30.3181 124.631 31.8402C126.538 33.3623 128.077 35.1583 129.246 37.2283C130.415 39.2983 131 41.5205 131 43.895C131 47.0609 130.292 49.7093 128.877 51.8402C127.523 53.9102 125.123 55.9193 121.677 57.8676C120.815 58.3546 119.831 58.9939 118.723 59.7854C117.677 60.516 116.754 61.2466 115.954 61.9772C115.154 62.6469 114.662 63.1644 114.477 63.5297C113.862 64.5647 113.554 66.6651 113.554 69.8311C113.554 70.6225 112.938 71.0183 111.708 71.0183ZM112.446 87C110.969 87 109.677 86.4825 108.569 85.4475C107.523 84.4125 107 83.1644 107 81.7032C107 80.242 107.523 78.9939 108.569 77.9589C109.615 76.863 110.908 76.3151 112.446 76.3151C114.046 76.3151 115.338 76.863 116.323 77.9589C117.308 78.9939 117.8 80.242 117.8 81.7032C117.8 83.1644 117.277 84.4125 116.231 85.4475C115.185 86.4825 113.923 87 112.446 87Z" fill="white"/>
<ellipse cx="51.5" cy="104" rx="43.5" ry="4" fill="#626262"/>
<mask id="path-4-inside-1_17_21" fill="white">
<path d="M104 52C104 65.7913 98.5214 79.0177 88.7696 88.7696C79.0177 98.5214 65.7913 104 52 104C38.2087 104 24.9823 98.5214 15.2305 88.7696C5.47856 79.0177 2.08242e-06 65.7913 0 52L52 52H104Z"/>
</mask>
<path d="M104 52C104 65.7913 98.5214 79.0177 88.7696 88.7696C79.0177 98.5214 65.7913 104 52 104C38.2087 104 24.9823 98.5214 15.2305 88.7696C5.47856 79.0177 2.08242e-06 65.7913 0 52L52 52H104Z" stroke="white" stroke-width="4" mask="url(#path-4-inside-1_17_21)"/>
<path d="M103.604 28.4125C95.5716 27.1896 96.1116 37.7857 97.2672 41.6238C97.5808 38.1748 100.43 36.5136 101.815 36.1141C106.717 35.2656 106.445 28.8449 103.604 28.4125Z" fill="white"/>
<path fill-rule="evenodd" clip-rule="evenodd" d="M87.4431 90.0498C96.786 81.3469 98.5001 47 96 46.5C95.5075 46.4015 94.5332 48.0321 93.0216 50.5619C86.8607 60.8731 71.774 86.123 43.9999 70.1177C42.7109 69.362 41.1237 68.049 39.2519 66.5005C31.2158 59.8523 17.9337 48.8643 0.475342 59.0153C2.19791 71.6669 8.51507 83.2425 18.223 91.5363C27.931 99.8301 40.351 104.262 53.1164 103.988C65.8818 103.714 78.1002 98.7526 87.4431 90.0498ZM11.2352 68.4706C13.5743 68.4706 15.4705 66.5744 15.4705 64.2353C15.4705 61.8962 13.5743 60 11.2352 60C8.89608 60 6.99988 61.8962 6.99988 64.2353C6.99988 66.5744 8.89608 68.4706 11.2352 68.4706ZM13.8234 70.4118C13.8234 71.1915 13.1913 71.8235 12.4116 71.8235C11.6319 71.8235 10.9999 71.1915 10.9999 70.4118C10.9999 69.6321 11.6319 69 12.4116 69C13.1913 69 13.8234 69.6321 13.8234 70.4118ZM16.9411 63.8824C17.4609 63.8824 17.8822 63.461 17.8822 62.9412C17.8822 62.4214 17.4609 62 16.9411 62C16.4213 62 15.9999 62.4214 15.9999 62.9412C15.9999 63.461 16.4213 63.8824 16.9411 63.8824ZM92.7058 79.2941C92.7058 80.2038 91.9683 80.9412 91.0587 80.9412C90.149 80.9412 89.4116 80.2038 89.4116 79.2941C89.4116 78.3845 90.149 77.6471 91.0587 77.6471C91.9683 77.6471 92.7058 78.3845 92.7058 79.2941ZM88.941 82.353C89.4608 82.353 89.8822 81.9316 89.8822 81.4118C89.8822 80.892 89.4608 80.4706 88.941 80.4706C88.4212 80.4706 87.9999 80.892 87.9999 81.4118C87.9999 81.9316 88.4212 82.353 88.941 82.353Z" fill="white"/>
</svg>
